<?xml version="1.0" standalone="no"?>
<!DOCTYPE svg PUBLIC "-//W3C//DTD SVG 20010904//EN"
 "http://www.w3.org/TR/2001/REC-SVG-20010904/DTD/svg10.dtd">
<svg version="1.0" xmlns="http://www.w3.org/2000/svg"
 width="704.000000pt" height="704.000000pt" viewBox="0 0 704.000000 704.000000"
 preserveAspectRatio="xMidYMid meet">
<metadata>
Created by potrace 1.11, written by Peter Selinger 2001-2013
</metadata>
<g transform="translate(0.000000,704.000000) scale(0.100000,-0.100000)"
fill="#000000" stroke="none">
<path d="M2645 6406 c-61 -26 -84 -109 -50 -179 47 -99 179 -222 277 -259 55
-20 60 -24 96 -92 53 -98 98 -129 196 -134 l72 -4 28 -44 c40 -64 132 -143
206 -178 56 -26 77 -30 148 -31 l83 0 31 -50 c64 -105 138 -154 244 -163 58
-4 65 -7 109 -53 59 -61 130 -86 193 -70 65 18 96 67 95 156 0 98 -57 183
-154 227 -35 17 -49 30 -62 62 -53 128 -202 219 -323 197 -41 -8 -41 -7 -65
38 -35 66 -134 161 -209 201 -55 29 -78 35 -148 38 -77 4 -84 6 -97 31 -36 68
-130 131 -198 131 -24 0 -41 8 -63 31 -108 114 -314 187 -409 145z m153 -21
c86 -20 150 -55 219 -118 51 -48 64 -55 112 -60 67 -8 110 -37 160 -106 l36
-52 80 -2 c62 -2 93 -9 138 -29 72 -34 165 -121 202 -191 35 -64 39 -67 82
-55 107 29 245 -54 310 -187 22 -45 33 -56 71 -71 83 -31 152 -130 152 -213
-1 -50 -37 -111 -75 -127 -56 -23 -132 2 -190 63 -41 42 -48 46 -112 53 -111
12 -178 58 -240 165 l-29 50 -85 0 c-73 1 -93 5 -151 32 -78 37 -156 106 -203
179 l-33 51 -51 -5 c-100 -9 -169 37 -217 145 -21 47 -28 53 -80 73 -72 26
-137 74 -205 148 -83 91 -110 177 -73 230 30 44 80 51 182 27z"/>
<path d="M2894 5863 c3 -10 10 -65 16 -123 19 -169 0 -289 -61 -384 -30 -48
-30 -50 -12 -64 54 -40 68 -53 47 -43 -12 6 -24 7 -28 4 -3 -3 -6 -1 -6 5 0 7
-3 11 -7 10 -18 -3 -63 23 -63 37 0 8 -4 15 -9 15 -5 0 -14 14 -20 30 -11 33
-72 96 -102 105 -10 4 -19 10 -19 14 0 8 -95 54 -115 57 -5 0 -30 7 -55 14
-60 18 -195 16 -262 -4 -196 -57 -243 -237 -96 -372 60 -55 112 -85 134 -78
11 3 -17 -14 -61 -38 -353 -195 -594 -500 -595 -753 0 -120 46 -237 144 -362
88 -112 179 -174 486 -328 52 -27 97 -50 99 -51 2 -2 -3 -23 -12 -46 -10 -23
-14 -45 -9 -49 14 -13 179 -67 256 -84 65 -15 103 -16 215 -10 75 4 143 7 151
8 8 0 53 -9 100 -21 263 -64 525 -62 710 6 25 9 48 16 53 14 4 -1 7 2 7 8 0 5
9 10 20 10 23 0 42 10 115 59 66 45 99 76 140 133 37 51 90 149 87 161 -3 12
10 8 92 -25 50 -21 87 -43 100 -61 l20 -27 -44 -43 c-25 -23 -83 -84 -130
-136 -85 -94 -152 -146 -224 -172 -48 -17 -52 -28 -28 -76 38 -73 103 -112
222 -133 59 -11 71 -10 130 10 93 31 169 81 256 165 44 44 81 72 89 69 7 -3
41 2 75 10 34 9 70 16 81 16 10 0 19 5 19 10 0 6 5 10 12 10 6 0 55 28 107 63
53 34 108 69 124 77 15 7 49 33 75 57 l47 43 0 83 c0 59 5 89 17 107 22 34 32
86 19 107 -6 10 -11 15 -11 11 0 -4 -12 5 -27 20 -16 15 -37 29 -48 30 -11 2
-24 11 -29 19 -15 26 -56 57 -100 75 -75 29 -179 -6 -370 -127 l-89 -56 -71
35 c-90 44 -182 64 -229 49 -24 -7 -34 -7 -35 1 -1 6 -6 52 -11 101 -10 98
-36 230 -51 257 -6 10 -10 24 -10 32 0 8 -10 36 -21 63 -12 26 -25 69 -29 94
-6 43 -4 48 19 61 14 8 49 21 76 27 92 23 113 34 156 76 77 75 67 189 -24 282
-18 18 -38 33 -45 33 -7 0 -11 4 -8 8 3 5 -18 19 -47 31 -29 12 -66 28 -83 36
-17 7 -68 21 -115 30 -119 24 -199 16 -299 -31 -64 -29 -81 -34 -98 -25 -11 6
-46 11 -77 11 -52 0 -191 23 -225 37 -8 3 -17 7 -20 8 -3 1 -12 4 -20 7 -8 3
-35 11 -60 18 -25 7 -56 19 -70 27 -15 8 -17 11 -5 7 70 -25 291 -74 344 -76
l65 -3 -3 47 c-4 78 58 165 148 208 28 13 51 26 51 29 0 4 -15 28 -32 54 l-33
48 -65 3 c-94 4 -141 20 -227 79 -57 38 -88 69 -121 117 l-44 65 -69 6 c-58 4
-77 11 -123 43 -30 20 -66 55 -81 77 -29 40 -50 52 -41 22z m161 -149 c19 -8
58 -14 87 -14 51 0 54 -2 72 -35 32 -58 138 -152 212 -187 52 -24 85 -33 146
-36 l79 -5 27 -40 c19 -29 23 -42 14 -45 -7 -2 -34 -18 -60 -36 -62 -43 -110
-114 -118 -177 -6 -45 -9 -49 -34 -49 -47 0 -191 30 -275 57 -76 24 -286 118
-332 148 l-22 15 33 63 c45 85 61 182 52 314 -4 57 -10 111 -13 121 -4 9 17
-5 45 -31 29 -27 68 -55 87 -63z m-665 -389 c7 -9 19 -14 25 -11 7 2 18 0 26
-5 10 -6 8 -9 -11 -10 -14 -1 -29 0 -35 1 -34 9 -79 3 -82 -10 -4 -13 -3 -13
7 0 10 13 11 13 7 0 -2 -8 -12 -15 -23 -15 -11 0 -20 -8 -22 -20 -4 -23 -22
-45 -22 -28 0 71 94 141 130 98z m647 -255 c26 -11 62 -35 79 -51 27 -26 37
-29 65 -24 20 4 51 0 76 -9 22 -8 44 -12 48 -8 3 4 10 0 15 -8 6 -10 10 -11
10 -3 0 18 64 -22 100 -63 113 -130 136 -389 45 -526 -23 -34 -30 -39 -52 -33
-14 3 -38 9 -54 12 l-28 5 25 27 c122 131 53 341 -113 341 l-37 0 22 -20 c29
-27 29 -74 0 -94 -53 -38 -125 -4 -112 51 9 34 -9 28 -51 -18 -49 -55 -65 -96
-65 -169 0 -33 -2 -60 -5 -60 -16 0 -125 34 -125 39 0 3 13 15 29 25 92 62
126 211 68 298 -25 37 -97 78 -139 78 -33 0 -34 -4 -8 -30 34 -34 19 -79 -33
-99 -48 -18 -105 18 -92 59 16 50 -59 -9 -91 -73 -21 -39 -29 -128 -16 -165
l10 -29 -40 7 c-45 9 -53 17 -69 75 -36 129 79 339 236 431 117 68 203 78 302
34z m-490 -601 c35 -6 63 -14 63 -18 0 -3 -12 -18 -28 -32 -15 -14 -33 -38
-41 -52 -46 -86 145 -263 320 -298 32 -6 84 -7 129 -3 41 5 89 8 107 8 17 1
29 4 26 9 -4 6 11 11 29 8 4 0 23 14 42 33 42 39 47 80 17 140 l-20 38 52 -7
c78 -11 174 -43 251 -84 81 -42 180 -127 172 -148 -3 -8 -2 -11 4 -8 5 3 14
-4 20 -15 6 -11 7 -20 3 -20 -4 0 0 -6 9 -12 25 -20 40 -110 28 -165 -14 -62
-25 -80 -79 -136 -51 -54 -96 -82 -113 -71 -6 4 -8 3 -4 -4 13 -21 -122 -55
-249 -62 -77 -5 -133 -13 -157 -24 -21 -9 -38 -14 -38 -12 0 3 -18 -1 -40 -9
-39 -14 -182 -14 -304 -1 -50 5 -76 16 -38 16 12 0 45 9 74 21 63 25 261 121
268 131 3 3 81 45 174 91 l168 85 11 -29 c12 -30 26 -38 29 -16 2 20 3 95 1
93 -2 -1 -23 16 -47 38 -35 33 -42 44 -33 55 10 12 9 12 -13 0 -14 -8 -27 -15
-29 -16 -2 -1 7 -16 20 -34 l22 -32 -194 6 c-113 4 -221 12 -259 21 -79 18
-211 62 -219 73 -3 4 -14 9 -23 11 -9 1 -70 33 -135 71 -65 37 -127 73 -138
79 -18 9 -16 12 23 27 23 10 39 21 36 27 -3 5 -34 8 -69 6 -35 -1 -61 -6 -59
-10 3 -5 -1 -8 -9 -8 -20 0 -104 -76 -94 -86 4 -4 28 2 52 14 25 12 50 22 55
22 19 0 78 -106 118 -210 86 -222 113 -301 106 -312 -4 -6 -3 -8 3 -5 5 3 20
-13 33 -36 13 -23 31 -48 39 -54 27 -22 -64 13 -142 54 -43 23 -97 63 -134
100 -42 41 -88 75 -137 99 -82 41 -180 119 -170 136 4 7 2 8 -4 4 -13 -8 -57
57 -79 118 -37 102 -14 190 71 274 30 29 64 54 75 55 11 0 18 4 15 8 -5 8 87
45 145 59 53 12 215 12 288 -1z m466 -166 c39 -16 49 -33 19 -33 -29 0 -115
31 -132 47 -13 13 -10 14 30 8 25 -4 62 -14 83 -22z m-480 -260 c156 -92 308
-143 508 -171 l124 -18 -80 -43 -80 -44 -82 12 c-108 15 -240 54 -329 95 l-72
34 -50 102 c-47 93 -49 100 -25 85 14 -9 52 -33 86 -52z"/>
<path d="M1463 3891 c-52 -9 -140 -68 -172 -117 -17 -25 -26 -54 -29 -94 -4
-49 0 -66 23 -109 27 -49 98 -123 200 -207 l50 -41 0 -151 0 -150 31 -38 c43
-55 43 -54 53 -129 12 -83 35 -110 129 -153 146 -67 324 -100 412 -77 14 4 41
10 60 15 53 11 80 21 80 31 0 5 9 9 20 9 11 0 20 4 20 9 0 5 13 14 29 21 42
17 120 99 153 161 35 67 36 117 3 184 -14 28 -25 62 -25 77 0 39 -22 128 -32
128 -4 0 -8 5 -8 10 0 6 -16 26 -35 46 -19 19 -35 32 -35 28 0 -3 -7 -1 -15 6
-8 6 -19 9 -24 6 -5 -4 -12 -2 -16 4 -4 6 -10 8 -15 5 -5 -3 -11 -1 -15 5 -3
5 -14 10 -24 10 -16 0 -35 31 -32 52 2 20 -69 74 -112 86 -64 16 -101 15 -178
-6 l-66 -19 -14 36 c-7 20 -13 38 -14 41 -2 18 -29 70 -37 70 -5 0 -7 4 -4 9
8 12 -84 144 -119 172 -34 27 -95 63 -95 56 0 -3 -21 1 -47 9 -25 8 -49 13
-52 13 -3 -1 -25 -5 -48 -8z m167 -660 c-12 -24 -32 -29 -24 -6 4 8 10 15 15
15 5 0 9 8 10 18 0 9 3 12 5 5 3 -7 0 -21 -6 -32z"/>
<path d="M2744 3298 c-81 -56 -87 -76 -96 -343 -4 -126 -12 -250 -17 -275 -19
-85 -10 -82 58 20 30 44 58 80 62 80 5 0 6 6 3 14 -4 10 0 13 13 10 41 -11 94
76 139 230 l26 88 49 -48 c27 -26 66 -72 86 -101 57 -79 64 -71 38 52 -18 85
-18 85 1 60 14 -19 15 -17 13 29 -2 28 -8 50 -16 53 -7 3 -15 13 -18 23 -3 9
-23 25 -45 35 -22 10 -45 24 -52 32 -22 27 -67 44 -87 34 -13 -8 -26 -4 -54
14 -20 14 -40 25 -45 25 -6 0 -31 -15 -58 -32z"/>
<path d="M650 3157 c-47 -5 -86 -11 -88 -12 -13 -11 39 -84 102 -145 114 -110
114 -110 236 -110 l105 0 115 88 c107 82 160 137 160 167 0 15 -124 30 -167
21 -16 -4 -51 -25 -78 -47 -56 -46 -72 -46 -139 0 -43 30 -106 52 -141 49 -11
0 -58 -5 -105 -11z m197 -60 c35 -29 95 -57 121 -57 32 0 67 16 103 48 29 25
42 29 89 29 30 0 49 -2 42 -4 -6 -3 -10 -9 -7 -13 3 -5 0 -12 -6 -16 -8 -5
-10 -2 -5 7 4 8 -1 4 -10 -8 -20 -28 -34 -29 -34 -4 0 11 -4 22 -8 25 -10 6
-9 -24 1 -41 9 -14 -32 -45 -46 -36 -6 3 -7 1 -4 -4 10 -16 -18 -34 -39 -27
-13 4 -15 3 -7 -3 10 -7 8 -13 -6 -25 -13 -11 -22 -13 -29 -6 -7 7 -10 4 -9
-8 2 -17 -7 -19 -87 -22 -75 -2 -90 0 -103 15 -8 10 -11 11 -7 4 4 -9 -6 -6
-24 8 -28 19 -47 41 -24 27 5 -3 9 1 9 8 0 8 -6 12 -12 10 -16 -7 -79 51 -71
65 5 7 1 9 -10 4 -14 -5 -16 -3 -11 11 4 10 3 15 -3 11 -6 -3 -16 -3 -22 2
-16 10 42 20 129 22 51 1 66 -3 90 -22z"/>
<path d="M840 3050 c0 -5 5 -10 11 -10 5 0 7 5 4 10 -3 6 -8 10 -11 10 -2 0
-4 -4 -4 -10z"/>
<path d="M4540 3011 c-37 -6 -46 -24 -36 -66 4 -15 15 -25 29 -27 14 -2 23
-11 25 -27 3 -20 1 -23 -15 -16 -98 42 -130 41 -176 -3 -30 -28 -67 -132 -67
-186 0 -94 58 -166 133 -166 23 0 61 9 85 20 l43 19 11 -25 c11 -24 16 -26 57
-20 89 12 121 25 121 49 0 42 -12 66 -34 69 -20 3 -21 11 -30 148 -5 85 -5
145 0 147 32 11 37 22 28 55 -10 33 -10 33 -74 34 -36 1 -81 -1 -100 -5z m38
-256 c24 -30 19 -55 -18 -95 -34 -37 -85 -42 -95 -10 -16 49 28 130 70 130 13
0 32 -11 43 -25z"/>
<path d="M5820 3011 c-37 -6 -46 -24 -36 -67 5 -17 13 -24 31 -24 21 0 25 -5
25 -29 l0 -28 -47 24 c-92 47 -158 9 -195 -110 -55 -184 48 -306 200 -237 l43
19 9 -25 c9 -23 14 -25 66 -23 l57 3 -8 205 -7 205 23 17 c20 15 21 19 9 48
-12 30 -14 31 -74 30 -33 -1 -77 -4 -96 -8z m32 -248 c43 -39 -6 -133 -70
-133 -38 0 -47 23 -32 79 18 68 61 91 102 54z"/>
<path d="M3529 2979 c-5 -10 -9 -61 -9 -114 0 -108 -11 -116 -36 -27 -9 31
-26 79 -37 106 l-21 49 -84 -7 c-131 -10 -132 -11 -132 -62 0 -43 1 -44 31
-44 l32 0 -6 -82 c-4 -46 -7 -98 -7 -116 0 -28 -5 -35 -31 -44 -30 -10 -31
-13 -25 -51 4 -23 8 -42 9 -43 1 -1 40 -4 87 -5 l84 -4 10 34 c8 28 7 36 -8
47 -12 8 -16 19 -11 33 10 33 23 25 35 -21 27 -104 33 -109 110 -88 30 8 44
18 52 38 9 25 11 26 18 7 5 -11 11 -28 14 -39 5 -14 12 -17 34 -12 15 4 71 12
125 19 l97 11 11 38 c13 48 6 58 -37 58 l-34 0 0 84 c0 46 -3 97 -6 114 -6 27
-3 32 20 38 25 6 27 10 24 53 l-3 46 -148 1 c-132 1 -149 -1 -158 -17z m133
-281 c4 -29 1 -51 -6 -56 -17 -14 -66 -24 -66 -14 0 8 31 105 46 142 8 21 20
-10 26 -72z"/>
<path d="M5279 2909 c-20 -12 -45 -35 -55 -53 l-19 -31 -5 40 -5 40 -78 -2
c-43 -1 -85 -7 -93 -14 -19 -16 -19 -69 1 -69 8 0 15 -6 15 -14 0 -26 -43
-127 -50 -119 -14 15 -50 125 -45 134 4 5 13 9 21 9 17 0 18 20 3 52 -10 23
-12 23 -111 16 -56 -4 -105 -11 -109 -15 -5 -5 -10 -24 -11 -42 -3 -30 1 -35
22 -41 22 -5 30 -20 61 -115 52 -161 47 -155 128 -155 l69 0 40 93 c23 50 50
113 60 138 19 43 36 59 66 59 10 0 12 -18 8 -74 -4 -67 -2 -80 21 -118 34 -59
93 -91 166 -91 64 0 134 27 170 66 l23 26 -20 33 c-19 31 -19 35 -5 44 23 14
19 94 -7 144 -28 54 -80 80 -162 80 -45 0 -73 -6 -99 -21z m131 -88 c5 -11 10
-22 10 -26 0 -7 -34 -20 -77 -30 -30 -6 -33 -4 -33 16 0 52 77 82 100 40z m85
-137 c-31 -24 -92 -36 -115 -24 -43 23 -16 35 90 38 42 1 44 0 25 -14z"/>
<path d="M4010 2904 c-76 -33 -110 -91 -110 -189 0 -72 13 -105 57 -148 69
-65 202 -63 278 5 38 33 42 52 20 82 -19 25 -19 36 0 36 24 0 19 87 -7 140
-40 78 -149 113 -238 74z m128 -76 c24 -24 13 -44 -33 -56 -59 -16 -65 -15
-65 6 0 48 66 82 98 50z m72 -154 c0 -3 -16 -12 -35 -20 -59 -24 -119 -15
-100 16 6 10 135 14 135 4z"/>
<path d="M727 2856 c-157 -46 -279 -185 -351 -404 -71 -215 -82 -293 -66 -439
18 -167 59 -256 156 -342 91 -80 201 -114 364 -113 167 1 266 46 390 179 126
135 190 260 190 373 0 81 -17 83 -188 23 -59 -21 -76 -32 -89 -57 -62 -124
-143 -181 -243 -174 -71 5 -121 39 -160 109 -43 77 -29 228 38 399 60 153 147
203 259 149 51 -25 66 -50 112 -191 18 -53 41 -108 52 -122 l19 -24 93 33
c151 53 139 35 132 210 -8 219 -15 309 -25 326 -20 31 -230 -2 -230 -36 0 -23
-15 -18 -62 22 -76 64 -140 87 -248 90 -58 1 -114 -3 -143 -11z m168 -36 c3
-6 14 -10 23 -10 15 0 15 2 2 11 -13 10 -13 10 0 6 54 -16 96 -33 102 -42 4
-5 11 -10 15 -11 28 -3 43 -18 38 -38 -5 -16 -4 -17 4 -7 8 12 12 12 25 2 9
-7 13 -18 9 -24 -4 -6 0 -8 10 -4 11 4 22 -1 29 -13 7 -11 20 -20 28 -20 13 0
13 -1 0 -10 -13 -9 -13 -10 0 -10 13 0 13 -1 0 -11 -10 -7 -11 -9 -2 -7 8 2
12 6 10 10 -2 3 7 17 19 30 19 20 20 27 10 38 -10 10 -9 11 2 5 11 -6 13 -4 8
8 -5 12 5 18 46 27 67 15 99 11 103 -15 2 -11 6 -94 9 -185 3 -91 8 -175 11
-187 5 -28 -35 -51 -83 -48 -18 1 -30 -2 -27 -6 6 -11 -33 -22 -47 -13 -8 4
-9 3 -5 -4 4 -7 0 -12 -10 -12 -10 0 -14 3 -11 7 4 3 2 12 -4 20 -6 7 -8 13
-3 13 5 0 3 4 -5 9 -8 5 -14 23 -15 40 0 17 -5 31 -10 31 -4 0 -6 7 -2 15 3 8
1 15 -4 15 -6 0 -10 6 -10 13 0 6 -12 37 -27 67 -14 30 -25 59 -24 63 1 5 -3
6 -8 3 -5 -4 -17 4 -25 16 -9 12 -16 19 -16 14 0 -5 -8 -2 -17 5 -14 12 -15
12 -9 1 7 -11 4 -12 -12 -3 -11 6 -33 12 -50 13 -17 1 -28 6 -26 10 3 4 -2 8
-10 8 -9 0 -16 -5 -16 -11 0 -5 -4 -8 -9 -4 -6 3 -25 -3 -44 -14 -19 -11 -38
-17 -42 -13 -4 4 -5 0 -3 -8 2 -8 -3 -14 -10 -12 -8 1 -11 -2 -8 -7 3 -5 0
-14 -8 -20 -11 -9 -15 -9 -19 1 -3 7 -5 4 -5 -7 1 -28 -37 -106 -47 -97 -4 4
-6 0 -2 -9 3 -9 0 -27 -7 -40 -14 -28 -16 -34 -16 -55 0 -8 -4 -13 -9 -10 -5
3 -9 -4 -9 -17 -1 -12 -5 -44 -11 -72 -22 -111 -8 -241 31 -282 16 -17 18 -23
7 -24 -8 0 -4 -4 9 -10 14 -5 20 -14 16 -20 -4 -7 -1 -10 7 -7 7 2 22 -3 32
-13 11 -9 47 -22 80 -28 70 -12 132 -2 183 29 17 11 35 16 39 12 5 -4 5 -1 1
6 -11 19 15 14 30 -5 12 -16 12 -16 7 5 -3 12 -9 22 -15 22 -5 0 0 10 11 22
12 12 23 30 27 40 3 10 10 18 15 18 5 0 8 3 7 8 -6 28 48 72 89 72 10 0 32 7
48 16 43 23 75 25 75 5 -1 -62 -63 -216 -82 -205 -7 4 -8 2 -4 -4 13 -22 -157
-217 -181 -208 -8 3 -12 2 -9 -3 7 -11 -62 -53 -75 -46 -5 4 -9 2 -9 -3 0 -12
-106 -42 -148 -42 -17 0 -34 5 -37 10 -3 6 -12 10 -18 10 -7 0 -6 -4 3 -10 11
-7 2 -10 -32 -10 -27 0 -48 3 -48 8 0 4 -19 8 -42 9 -23 1 -44 6 -46 12 -2 5
-9 8 -15 6 -17 -6 -80 27 -85 44 -3 8 0 11 7 7 17 -11 13 0 -6 15 -10 8 -14 9
-10 2 4 -6 3 -14 -3 -18 -17 -10 -95 72 -125 132 -15 31 -33 90 -40 132 -17
95 -18 264 -3 255 7 -4 8 -2 4 5 -8 12 13 121 23 121 3 0 7 12 7 28 1 15 7 41
14 57 7 17 13 33 12 38 -1 4 1 7 5 7 5 0 9 11 9 25 2 31 72 157 84 150 5 -3
12 0 16 6 4 8 3 9 -4 5 -20 -12 -13 12 6 26 11 7 24 23 30 34 15 28 102 86
120 79 7 -2 11 -1 8 4 -3 4 20 14 52 21 31 7 62 13 67 15 28 6 75 3 80 -5z"/>
<path d="M1250 2730 c-9 -6 -10 -10 -3 -10 6 0 15 5 18 10 8 12 4 12 -15 0z"/>
<path d="M1278 2713 c7 -3 16 -2 19 1 4 3 -2 6 -13 5 -11 0 -14 -3 -6 -6z"/>
<path d="M1140 2630 c0 -6 -6 -8 -12 -4 -10 6 -10 4 0 -7 9 -9 15 -10 23 -2 8
8 8 13 0 17 -6 4 -11 2 -11 -4z"/>
<path d="M1096 2602 c-3 -5 1 -9 9 -9 8 0 12 4 9 9 -3 4 -7 8 -9 8 -2 0 -6 -4
-9 -8z"/>
<path d="M1372 2580 c0 -14 2 -19 5 -12 2 6 2 18 0 25 -3 6 -5 1 -5 -13z"/>
<path d="M460 2511 c0 -6 4 -13 10 -16 6 -3 7 1 4 9 -7 18 -14 21 -14 7z"/>
<path d="M1360 2350 c-9 -6 -10 -10 -3 -10 6 0 15 5 18 10 8 12 4 12 -15 0z"/>
<path d="M1208 2063 c6 -2 18 -2 25 0 6 3 1 5 -13 5 -14 0 -19 -2 -12 -5z"/>
<path d="M1312 2020 c0 -14 2 -19 5 -12 2 6 2 18 0 25 -3 6 -5 1 -5 -13z"/>
<path d="M1160 1991 c0 -7 -5 -9 -12 -5 -7 5 -8 3 -3 -5 5 -9 10 -10 18 -2 6
6 8 14 4 18 -4 3 -7 1 -7 -6z"/>
<path d="M675 1949 c-4 -6 -5 -12 -2 -15 2 -3 7 2 10 11 7 17 1 20 -8 4z"/>
<path d="M1119 1713 c-13 -16 -12 -17 4 -4 9 7 17 15 17 17 0 8 -8 3 -21 -13z"/>
<path d="M901 1634 c0 -11 3 -14 6 -6 3 7 2 16 -1 19 -3 4 -6 -2 -5 -13z"/>
<path d="M2307 2474 c-3 -5 -15 -48 -27 -94 -21 -81 -21 -85 -3 -98 10 -7 28
-11 41 -9 l22 4 0 -308 c0 -293 -1 -309 -19 -319 -28 -14 -53 -88 -49 -144 l3
-48 190 0 189 0 8 28 c4 15 8 64 10 108 l3 81 -39 0 -39 0 7 345 c4 190 9 364
12 387 6 41 6 42 -32 53 -50 15 -269 26 -277 14z m223 -54 c-11 -8 -8 -9 12
-4 l28 6 -3 -393 -2 -394 33 -3 c32 -3 33 -4 15 -18 -15 -12 -16 -13 -1 -8 15
5 17 0 14 -43 -2 -26 -4 -51 -5 -55 0 -5 -70 -8 -153 -7 -92 1 -143 4 -128 9
24 8 24 8 3 9 -18 1 -23 7 -23 29 0 30 26 75 40 67 17 -11 20 35 20 313 0 158
4 302 9 320 8 27 6 36 -12 55 -12 13 -32 22 -45 21 -18 -1 -22 3 -17 15 4 9 9
27 11 41 9 48 9 48 116 49 73 1 99 -2 88 -9z"/>
<path d="M2335 2350 c-3 -5 -1 -10 4 -10 6 0 11 5 11 10 0 6 -2 10 -4 10 -3 0
-8 -4 -11 -10z"/>
<path d="M4206 2450 c-101 -89 -73 -233 53 -271 36 -11 50 -10 84 2 62 22 82
56 82 144 0 64 -3 77 -25 100 -57 62 -140 72 -194 25z m111 -21 c58 -22 74
-63 62 -162 -3 -22 -43 -52 -58 -43 -5 3 -11 2 -13 -4 -4 -12 -78 9 -78 22 0
4 5 8 10 8 6 0 10 5 10 10 0 7 -7 7 -20 0 -18 -10 -22 -7 -34 22 -19 44 -11
79 29 122 35 39 48 42 92 25z"/>
<path d="M4206 2363 c-6 -14 -5 -15 5 -6 7 7 10 15 7 18 -3 3 -9 -2 -12 -12z"/>
<path d="M4325 2283 c-18 -14 -18 -15 -1 -9 14 5 17 3 12 -11 -6 -14 -4 -15 4
-7 7 7 10 19 8 27 -3 14 -5 14 -23 0z"/>
<path d="M5329 2443 c-5 -14 -11 -63 -12 -107 -2 -81 -2 -81 25 -84 l26 -3 6
-112 c3 -62 8 -187 10 -279 5 -157 4 -168 -14 -178 -41 -22 -50 -40 -50 -104
0 -99 -2 -99 197 -104 161 -4 172 -3 191 16 l20 20 19 -26 19 -25 104 32 c58
18 124 39 148 48 l42 15 0 72 c0 81 -9 96 -57 96 -29 0 -41 10 -108 90 -41 50
-75 95 -75 100 0 10 46 97 62 117 7 9 19 8 50 -3 22 -8 44 -14 48 -14 4 0 14
33 23 72 16 75 13 93 -21 102 -10 2 -73 19 -141 37 l-123 33 -29 -34 c-15 -19
-34 -48 -40 -63 -11 -25 -9 -31 15 -56 31 -32 31 -38 7 -70 -17 -23 -19 -23
-24 -5 -3 10 -13 100 -22 199 -10 99 -22 190 -28 202 -14 31 -63 43 -170 43
-86 0 -88 -1 -98 -27z m201 -24 c26 -7 39 -33 40 -77 0 -37 21 -259 35 -362 2
-19 4 -41 5 -47 0 -7 6 -13 14 -13 8 0 16 -3 19 -7 2 -5 2 -2 1 4 -2 7 5 18
14 25 16 12 61 74 89 122 7 12 13 15 13 9 0 -7 8 -13 17 -13 15 0 14 2 -2 14
-11 8 -23 12 -26 10 -4 -2 -19 10 -33 27 -27 32 -25 51 8 78 20 16 112 -3 120
-25 3 -8 13 -14 23 -14 15 0 16 2 3 10 -11 8 -7 9 15 4 31 -7 47 -22 39 -35
-2 -4 0 -10 5 -14 6 -3 8 4 6 15 -3 16 0 20 13 18 18 -4 21 -53 4 -70 -13 -13
-65 9 -56 24 4 7 -3 3 -15 -9 -12 -13 -26 -23 -32 -23 -6 0 -8 -4 -5 -8 3 -5
-3 -18 -12 -28 -10 -10 -29 -45 -42 -76 -22 -54 -22 -59 -7 -76 9 -10 17 -23
17 -29 0 -6 7 -14 16 -17 9 -4 14 -9 11 -13 -4 -3 5 -14 18 -25 27 -21 32 -43
13 -51 -10 -4 -10 -6 -1 -6 6 -1 15 4 18 10 4 6 22 -11 41 -40 19 -28 40 -51
47 -51 8 0 7 4 -3 10 -8 5 -11 10 -6 10 5 0 18 -8 28 -17 18 -16 18 -16 12 0
-4 11 -1 17 9 17 12 0 15 -11 14 -47 -1 -32 -6 -47 -14 -46 -7 2 -13 -2 -13
-7 0 -6 -11 -10 -25 -10 -14 0 -25 -3 -25 -8 0 -4 -26 -13 -57 -21 -32 -7 -64
-18 -70 -23 -18 -15 -40 -3 -58 31 -14 28 -14 33 1 56 13 20 20 23 30 14 10
-8 10 -4 -1 19 -8 16 -39 52 -69 80 -29 28 -52 53 -50 55 3 2 -13 16 -35 30
-21 14 -41 24 -43 21 -3 -2 2 -39 10 -82 8 -42 15 -94 15 -114 1 -20 4 -32 8
-27 3 6 9 0 12 -13 8 -31 9 -31 24 -46 30 -30 13 -34 -134 -27 -82 4 -151 9
-154 11 -3 2 -6 23 -7 47 -2 46 17 75 39 61 8 -4 9 -3 5 4 -4 8 3 16 18 22 25
9 34 29 19 44 -10 10 -14 77 -18 269 -2 93 -6 171 -9 174 -3 4 -6 35 -6 70 0
62 -1 64 -28 69 -28 6 -28 7 -25 62 7 87 4 85 86 80 39 -3 79 -7 87 -9z m181
-800 c-9 -16 -19 -29 -22 -29 -6 0 -39 100 -39 120 0 8 18 -3 39 -24 39 -38
39 -38 22 -67z"/>
<path d="M5370 2409 c0 -5 5 -7 10 -4 6 3 10 8 10 11 0 2 -4 4 -10 4 -5 0 -10
-5 -10 -11z"/>
<path d="M5385 2390 c-10 -11 -16 -20 -13 -20 3 0 15 9 28 20 13 11 19 20 13
20 -5 0 -18 -9 -28 -20z"/>
<path d="M5410 2386 c0 -2 7 -7 16 -10 8 -3 12 -2 9 4 -6 10 -25 14 -25 6z"/>
<path d="M5541 2324 c0 -11 3 -14 6 -6 3 7 2 16 -1 19 -3 4 -6 -2 -5 -13z"/>
<path d="M5420 2250 c0 -5 5 -10 11 -10 5 0 7 5 4 10 -3 6 -8 10 -11 10 -2 0
-4 -4 -4 -10z"/>
<path d="M5710 2136 c0 -2 7 -7 16 -10 8 -3 12 -2 9 4 -6 10 -25 14 -25 6z"/>
<path d="M5786 2015 c-9 -26 -7 -32 5 -12 6 10 9 21 6 23 -2 3 -7 -2 -11 -11z"/>
<path d="M5722 1724 c10 -10 20 -16 22 -13 3 3 -5 11 -17 18 -21 13 -21 12 -5
-5z"/>
<path d="M5880 1728 c0 -9 5 -20 10 -23 13 -8 13 5 0 25 -8 13 -10 13 -10 -2z"/>
<path d="M5810 1596 c0 -2 7 -7 16 -10 8 -3 12 -2 9 4 -6 10 -25 14 -25 6z"/>
<path d="M5769 1563 c-13 -16 -12 -17 4 -4 9 7 17 15 17 17 0 8 -8 3 -21 -13z"/>
<path d="M1745 2256 c-135 -26 -210 -72 -224 -138 -14 -65 28 -146 88 -169
l24 -10 -35 -24 c-46 -31 -61 -71 -56 -142 5 -69 42 -134 90 -160 45 -24 176
-24 236 0 23 9 44 17 46 17 2 0 24 -16 47 -36 39 -33 48 -36 90 -32 55 6 129
49 153 89 28 47 15 211 -18 238 -15 13 -96 -25 -96 -44 0 -8 -3 -16 -7 -18 -5
-3 -7 53 -5 123 3 138 -5 188 -40 240 -46 68 -155 92 -293 66z m185 -46 c0 -6
5 -8 10 -5 6 3 22 -3 36 -14 15 -12 23 -21 18 -21 -4 0 1 -6 11 -14 12 -8 19
-26 19 -50 1 -20 4 -36 9 -36 9 0 8 -114 -2 -203 -6 -58 -4 -73 12 -100 19
-30 19 -31 1 -15 -17 14 -20 15 -33 1 -12 -13 -11 -14 7 -9 11 4 23 3 26 -3 3
-5 16 -8 29 -6 40 6 70 14 76 21 3 4 -2 4 -12 1 -22 -8 -20 21 3 41 9 9 10 11
2 7 -10 -5 -13 -2 -10 11 5 27 31 23 39 -6 4 -14 7 -46 8 -72 1 -40 -4 -51
-33 -81 -43 -45 -68 -52 -103 -31 -24 14 -25 14 -9 0 19 -15 19 -16 -8 -16
-15 0 -25 4 -22 8 3 4 -15 19 -39 32 -42 23 -47 23 -87 11 -70 -22 -194 -26
-224 -6 -13 9 -22 20 -19 26 4 5 1 8 -7 7 -7 -2 -12 3 -10 10 1 6 -2 12 -8 12
-6 0 -9 3 -8 8 1 4 -4 26 -10 49 -7 23 -11 48 -10 55 5 24 68 80 84 74 8 -3
13 -2 10 3 -3 4 6 13 19 19 19 9 25 9 25 -1 0 -8 3 -8 9 2 5 8 14 10 21 6 9
-5 11 -4 6 3 -5 8 0 12 13 12 11 0 23 5 27 11 3 6 15 9 25 6 11 -3 17 -1 13 4
-5 8 8 13 27 11 10 -2 27 48 32 91 3 20 0 37 -5 37 -5 0 -21 9 -35 20 -14 11
-34 20 -44 20 -10 0 -17 6 -15 13 1 6 1 9 -1 5 -3 -5 -18 -8 -34 -8 -36 0 -46
-20 -29 -60 10 -24 10 -33 0 -45 -6 -8 -9 -18 -6 -24 3 -5 -11 -16 -32 -24
-20 -8 -39 -11 -40 -6 -2 5 -8 7 -13 4 -14 -10 -48 14 -64 44 -11 23 -12 36
-4 60 7 19 15 28 22 24 7 -4 6 0 -1 9 -12 15 -8 19 27 38 23 11 67 27 99 34
73 17 212 21 212 6z m-102 -126 c32 -22 28 -51 -10 -74 -47 -29 -60 -26 -42 8
8 15 12 39 8 55 -7 32 9 36 44 11z"/>
<path d="M1647 2160 c-3 -11 -2 -20 3 -20 4 0 10 9 13 20 3 11 2 20 -3 20 -4
0 -10 -9 -13 -20z"/>
<path d="M1965 2140 c-16 -7 -17 -9 -3 -9 9 -1 20 4 23 9 7 11 7 11 -20 0z"/>
<path d="M1581 2064 c0 -11 3 -14 6 -6 3 7 2 16 -1 19 -3 4 -6 -2 -5 -13z"/>
<path d="M1887 1998 c-3 -10 1 -22 11 -29 9 -8 14 -9 10 -5 -4 5 -2 16 5 24 8
11 8 14 0 9 -6 -4 -13 -2 -15 5 -3 8 -7 6 -11 -4z"/>
<path d="M1855 1940 c3 -5 8 -10 11 -10 2 0 4 5 4 10 0 6 -5 10 -11 10 -5 0
-7 -4 -4 -10z"/>
<path d="M1881 1933 c-7 -8 -20 -12 -27 -9 -8 3 -17 -1 -20 -9 -3 -7 -19 -17
-35 -20 -16 -4 -29 -12 -29 -18 0 -7 -4 -6 -10 3 -7 11 -10 4 -10 -26 0 -25 6
-47 15 -54 8 -7 12 -17 8 -23 -3 -6 -1 -7 5 -3 7 4 12 2 12 -4 0 -7 6 -10 12
-8 7 3 21 -5 31 -16 10 -12 16 -16 13 -9 -4 7 1 11 14 10 11 -1 20 -5 20 -8 0
-4 12 -5 28 -2 15 3 32 6 37 6 16 1 1 115 -20 160 -21 46 -26 49 -44 30z m19
-110 c0 -38 -21 -43 -70 -18 -42 22 -37 41 13 58 48 16 57 10 57 -40z"/>
<path d="M1985 1829 c-4 -6 -4 -13 -1 -16 3 -4 6 -1 6 6 0 7 5 9 12 5 7 -4 8
-3 4 4 -9 15 -13 15 -21 1z"/>
<path d="M2091 1694 c0 -11 3 -14 6 -6 3 7 2 16 -1 19 -3 4 -6 -2 -5 -13z"/>
<path d="M2871 2255 c-127 -28 -201 -87 -201 -159 1 -56 35 -115 79 -134 l39
-18 -35 -22 c-67 -44 -81 -133 -35 -223 40 -80 75 -99 179 -99 52 0 97 6 120
15 49 21 57 19 99 -17 31 -27 45 -33 79 -31 83 3 166 66 179 136 7 38 -17 174
-34 191 -15 15 -88 -23 -99 -53 -8 -19 -9 7 -5 95 12 247 -50 335 -236 333
-36 0 -94 -7 -129 -14z m235 -47 c16 -8 28 -19 27 -26 -2 -6 4 -9 12 -6 8 4
16 1 16 -5 2 -16 4 -22 18 -55 6 -16 10 -35 7 -43 -3 -7 -2 -13 3 -13 10 0 14
-97 5 -112 -10 -16 -9 -125 1 -168 5 -19 8 -37 8 -40 -1 -3 14 -5 32 -5 18 0
32 3 30 6 -2 3 2 25 9 50 14 46 36 59 43 24 12 -64 14 -87 6 -82 -5 4 -10 0
-10 -8 0 -8 5 -11 10 -8 6 4 8 -1 4 -11 -4 -10 -7 -21 -7 -26 0 -12 -62 -56
-90 -64 -19 -6 -21 -5 -10 3 21 15 4 14 -20 -1 -23 -15 -57 1 -52 24 2 7 0 10
-3 6 -4 -4 -17 -1 -29 7 -26 19 -70 19 -121 0 -84 -30 -220 -8 -220 37 0 9 -4
20 -9 25 -5 5 -6 2 -1 -6 5 -9 4 -12 -3 -7 -6 4 -17 26 -23 49 -16 62 0 107
51 136 22 12 45 19 52 15 6 -4 8 -3 5 3 -4 6 0 14 9 17 8 3 13 2 10 -2 -2 -4
0 -14 6 -22 8 -13 9 -12 5 1 -7 20 11 39 35 39 16 0 98 40 126 63 32 25 -1
125 -46 135 -9 2 -29 6 -44 9 -16 3 -28 9 -28 14 0 5 -5 9 -11 9 -5 0 -7 -4
-4 -10 3 -5 -1 -10 -11 -10 -13 0 -15 -6 -10 -32 13 -64 12 -83 -6 -82 -10 1
-14 -4 -11 -11 2 -8 -5 -18 -16 -24 -25 -14 -74 -14 -66 -1 3 5 0 7 -8 4 -18
-7 -56 33 -59 60 -4 62 20 113 49 102 8 -3 16 1 19 8 6 17 87 41 109 32 9 -3
13 -2 10 3 -13 22 156 21 201 -1z m-106 -133 c19 -22 2 -52 -38 -68 -42 -17
-51 -15 -32 8 8 9 11 30 7 54 l-5 39 28 -10 c16 -5 34 -16 40 -23z"/>
<path d="M2990 1940 c0 -5 7 -7 15 -4 8 4 15 8 15 10 0 2 -7 4 -15 4 -8 0 -15
-4 -15 -10z"/>
<path d="M2997 1919 c-22 -11 -45 -18 -53 -15 -8 3 -13 0 -11 -7 1 -7 -3 -11
-9 -10 -7 1 -11 -17 -11 -48 0 -47 2 -52 28 -61 16 -5 27 -13 25 -16 -2 -4 6
-8 17 -8 12 -1 44 -5 71 -9 l49 -8 -7 79 c-4 43 -8 87 -9 96 -1 9 -5 15 -8 12
-4 -2 -10 0 -14 6 -9 14 -25 12 -68 -11z m56 -76 c4 -20 4 -40 1 -45 -11 -17
-104 20 -104 41 0 9 65 40 86 40 6 1 14 -15 17 -36z"/>
<path d="M2918 1923 c7 -3 16 -2 19 1 4 3 -2 6 -13 5 -11 0 -14 -3 -6 -6z"/>
<path d="M2780 1871 c0 -6 4 -13 10 -16 6 -3 7 1 4 9 -7 18 -14 21 -14 7z"/>
<path d="M2889 1808 c-5 -18 -6 -38 -1 -34 7 8 12 36 6 36 -2 0 -4 -1 -5 -2z"/>
<path d="M3291 1787 c-13 -21 -12 -21 5 -5 10 10 16 20 13 22 -3 3 -11 -5 -18
-17z"/>
<path d="M3113 1755 c0 -8 4 -12 9 -9 5 3 6 10 3 15 -9 13 -12 11 -12 -6z"/>
<path d="M3727 2260 c-16 -5 -44 -20 -63 -35 -22 -17 -34 -21 -34 -12 0 7 -6
21 -12 30 -12 15 -19 15 -78 2 -36 -8 -90 -14 -121 -15 -33 0 -61 -5 -66 -12
-15 -19 -23 -107 -15 -153 7 -37 10 -40 39 -40 30 0 32 -2 37 -45 3 -25 8
-130 12 -235 l6 -190 -43 -20 -44 -20 -3 -77 -3 -76 33 -8 c57 -13 416 -8 433
6 18 15 21 104 5 145 -9 24 -14 26 -58 24 l-47 -3 -3 36 -3 36 58 -1 c90 -1
191 61 234 144 31 62 45 176 31 264 -30 193 -152 298 -295 255z m156 -64 c25
-17 31 -28 28 -48 0 -5 2 -7 7 -7 19 3 23 -2 12 -16 -11 -13 -10 -14 2 -10 14
6 31 -25 33 -62 0 -6 4 -15 8 -19 10 -10 9 -206 -2 -200 -4 3 -6 -5 -4 -18 3
-16 -4 -32 -24 -52 -15 -15 -20 -22 -10 -15 28 21 20 4 -16 -32 -42 -44 -69
-58 -88 -46 -7 5 -18 9 -24 9 -5 0 -3 -5 5 -10 13 -9 13 -11 0 -20 -19 -13
-90 -13 -90 0 0 5 -7 7 -15 4 -8 -4 -15 -2 -15 4 0 6 -9 8 -20 5 -11 -3 -20
-13 -20 -23 0 -10 -7 -23 -15 -30 -8 -7 -15 -17 -15 -23 0 -6 6 -2 14 8 13 18
15 13 21 -49 l8 -69 53 6 c58 6 64 1 64 -55 0 -29 -1 -30 -37 -24 -24 4 -33 3
-25 -2 10 -6 4 -9 -16 -8 -17 1 -28 4 -25 9 2 4 -5 7 -17 7 -12 0 -18 -4 -15
-10 8 -12 9 -13 -45 4 -25 7 -57 12 -72 10 -15 -1 -30 1 -33 5 -2 5 -22 5 -42
2 -60 -11 -73 -4 -73 34 0 30 4 35 38 46 20 6 42 16 48 21 13 9 26 60 14 53
-9 -6 -22 409 -13 431 4 12 3 15 -6 10 -9 -6 -12 -1 -9 20 3 26 0 29 -32 34
-35 5 -35 5 -38 61 l-3 56 83 6 c46 3 92 8 104 12 19 6 22 2 28 -37 4 -24 8
-48 8 -55 1 -7 5 -10 10 -7 5 3 6 9 3 14 -8 13 103 92 139 100 41 8 95 -2 129
-24z"/>
<path d="M3702 2188 c-16 -16 -15 -35 3 -42 8 -3 15 -1 15 5 0 6 8 5 23 -2 18
-9 20 -9 10 2 -15 15 -18 33 -5 25 5 -3 9 1 9 9 0 12 -3 12 -16 2 -9 -6 -19
-16 -23 -22 -4 -5 -10 -6 -14 -2 -4 3 -1 13 6 22 15 18 9 20 -8 3z"/>
<path d="M3886 2167 c3 -10 9 -15 12 -12 3 3 0 11 -7 18 -10 9 -11 8 -5 -6z"/>
<path d="M3538 2163 c7 -3 16 -2 19 1 4 3 -2 6 -13 5 -11 0 -14 -3 -6 -6z"/>
<path d="M3670 2089 c12 -9 11 -10 -7 -6 -12 3 -22 2 -21 -2 2 -19 -3 -24 -12
-11 -6 10 -8 3 -3 -22 3 -21 2 -38 -3 -38 -13 0 1 -176 18 -224 18 -53 56 -80
100 -72 41 8 66 44 74 113 4 26 12 54 18 62 8 11 8 13 -1 7 -12 -6 -18 44 -16
121 0 6 -11 26 -26 43 -22 26 -34 32 -81 35 -41 4 -51 2 -40 -6z m100 -87 c13
-49 12 -158 -3 -202 -15 -42 -58 -55 -76 -21 -18 32 -32 162 -23 211 14 80 80
88 102 12z"/>
<path d="M3810 2046 c0 -2 7 -7 16 -10 8 -3 12 -2 9 4 -6 10 -25 14 -25 6z"/>
<path d="M3940 2031 c0 -6 4 -13 10 -16 6 -3 7 1 4 9 -7 18 -14 21 -14 7z"/>
<path d="M3940 1870 c0 -5 5 -10 11 -10 5 0 7 5 4 10 -3 6 -8 10 -11 10 -2 0
-4 -4 -4 -10z"/>
<path d="M3817 1774 c-3 -5 1 -15 9 -22 16 -14 18 -5 5 17 -5 7 -11 9 -14 5z"/>
<path d="M3838 1723 c6 -2 10 -8 8 -12 -3 -4 4 -7 15 -7 19 0 19 1 3 13 -10 7
-23 13 -28 12 -6 0 -5 -3 2 -6z"/>
<path d="M3675 1459 c-4 -6 -5 -12 -2 -15 2 -3 7 2 10 11 7 17 1 20 -8 4z"/>
<path d="M3400 1440 c0 -5 5 -10 10 -10 6 0 10 5 10 10 0 6 -4 10 -10 10 -5 0
-10 -4 -10 -10z"/>
<path d="M6390 2256 c-194 -56 -294 -180 -294 -366 -1 -69 3 -93 22 -127 31
-59 76 -98 161 -141 68 -34 82 -37 155 -37 130 1 238 40 321 116 66 61 85 108
85 210 0 164 -47 242 -190 318 -54 29 -77 35 -140 37 -42 2 -95 -2 -120 -10z
m143 -32 c25 -5 37 -12 37 -23 0 -12 2 -13 8 -3 10 14 38 4 105 -37 34 -21 42
-32 38 -54 -1 -5 4 -7 11 -5 7 3 21 -5 30 -18 24 -30 23 -41 -1 -20 -11 10
-26 16 -33 13 -9 -4 -8 -6 3 -6 35 -2 60 -46 66 -118 7 -92 -2 -139 -35 -171
-15 -14 -20 -21 -12 -17 13 8 13 6 1 -8 -7 -9 -17 -14 -22 -11 -5 3 -8 2 -7
-3 2 -4 -1 -10 -7 -12 -5 -2 -16 -12 -23 -23 -7 -10 -18 -16 -23 -13 -5 4 -9
2 -9 -3 0 -10 -62 -39 -105 -48 -16 -4 -68 -9 -114 -11 -66 -4 -82 -2 -76 7 5
8 4 11 -3 6 -24 -15 -179 75 -166 96 4 7 2 8 -4 4 -7 -4 -16 3 -21 17 -6 14
-15 28 -21 32 -7 4 -9 18 -5 32 4 16 2 22 -5 18 -19 -12 -3 119 19 161 12 21
21 44 21 51 0 7 5 13 12 13 6 0 8 3 5 6 -12 12 77 87 133 111 81 36 140 47
203 37z"/>
<path d="M6316 2172 c-2 -4 4 -8 14 -8 10 0 16 4 14 8 -3 4 -9 8 -14 8 -5 0
-11 -4 -14 -8z"/>
<path d="M6398 2143 c-10 -2 -18 -9 -18 -14 0 -6 -5 -7 -12 -3 -6 4 -8 3 -5
-3 3 -5 -4 -25 -15 -44 -12 -19 -23 -38 -24 -44 -28 -144 -30 -178 -9 -219 8
-15 12 -33 8 -39 -3 -6 -1 -7 5 -3 7 4 12 3 12 -3 0 -17 71 -45 108 -42 30 1
134 61 108 61 -5 0 -3 6 3 14 7 8 22 45 34 82 18 55 20 79 14 119 -4 28 -8 58
-9 67 -1 9 -4 15 -7 12 -2 -2 -12 7 -21 22 -10 14 -20 25 -24 25 -17 -2 -20 0
-8 7 13 9 -110 13 -140 5z m121 -58 c16 -14 35 -42 41 -61 30 -90 -52 -254
-127 -254 -15 0 -37 12 -55 32 -29 31 -30 35 -26 108 5 80 38 173 67 190 29
17 69 11 100 -15z"/>
<path d="M6631 2136 c-9 -11 -9 -16 0 -22 7 -4 9 -3 5 4 -3 6 2 15 11 21 10 6
13 11 7 11 -6 0 -17 -6 -23 -14z"/>
<path d="M6515 1744 c-19 -14 -19 -15 2 -11 26 4 38 13 26 20 -4 3 -17 -1 -28
-9z"/>
<path d="M6235 1721 c-3 -5 -2 -12 3 -15 5 -3 9 1 9 9 0 17 -3 19 -12 6z"/>
<path d="M6643 1715 c0 -8 4 -12 9 -9 5 3 6 10 3 15 -9 13 -12 11 -12 -6z"/>
<path d="M6267 1705 c3 -8 9 -12 14 -9 12 7 11 11 -5 17 -10 4 -13 1 -9 -8z"/>
<path d="M4873 2241 c-28 -9 -68 -30 -88 -45 -36 -27 -36 -28 -42 -7 -6 25
-27 26 -148 8 l-80 -12 0 -95 0 -95 41 -3 41 -3 2 -113 1 -113 -40 -16 -40
-15 0 -61 c0 -33 3 -62 8 -64 4 -3 91 -8 195 -12 l187 -6 2 43 1 43 4 -37 c4
-35 7 -38 36 -40 57 -3 100 -1 219 7 l116 8 7 91 c10 129 7 141 -31 140 l-31
-2 -11 92 c-13 111 -41 189 -87 243 -67 79 -157 101 -262 64z m155 -40 c2 -6
10 -11 18 -11 8 0 17 -7 20 -15 4 -8 10 -13 14 -10 4 3 14 -3 21 -12 12 -14
12 -16 -1 -9 -12 6 -12 5 0 -6 9 -7 23 -24 33 -37 15 -23 15 -25 -1 -38 -15
-12 -15 -13 0 -7 33 11 47 -53 48 -218 0 -37 1 -38 35 -38 l35 0 0 -64 c0 -79
-10 -89 -85 -84 -30 1 -55 0 -55 -4 0 -5 -34 -8 -75 -8 l-75 0 0 45 c0 34 4
45 16 45 8 0 25 8 37 17 21 16 22 21 15 97 -4 45 -10 94 -13 110 -3 16 0 35 6
43 9 11 8 12 -5 7 -10 -4 -16 -1 -16 9 0 9 -11 29 -25 45 -13 16 -22 32 -19
35 3 3 -24 4 -59 3 -36 0 -63 -4 -60 -8 2 -5 0 -8 -6 -8 -20 0 -39 -56 -42
-118 -1 -34 1 -65 4 -69 4 -3 7 -44 7 -90 l0 -83 35 0 c34 0 35 -1 35 -40 l0
-40 -145 0 c-131 0 -145 2 -145 18 0 15 -2 15 -11 2 -9 -12 -10 -12 -5 3 3 10
6 24 6 32 0 7 12 15 28 18 49 11 49 13 44 170 l-5 147 -42 0 -43 0 0 42 c-1
23 4 48 10 55 8 9 7 13 -2 13 -34 0 3 11 53 16 47 5 57 3 57 -10 0 -8 4 -17 9
-20 4 -3 6 6 3 19 -3 16 0 25 8 25 7 0 10 -7 6 -16 -3 -9 -2 -12 5 -9 6 4 10
1 8 -6 -4 -31 2 -59 12 -59 6 0 27 17 47 39 45 47 79 69 134 87 47 15 120 12
126 -5z m-84 -173 c19 -30 34 -97 38 -177 3 -63 2 -65 -27 -80 -16 -9 -33 -20
-37 -26 -5 -6 -8 -5 -8 3 0 7 -13 12 -34 12 l-33 0 -7 118 c-9 153 -2 172 61
172 23 0 37 -7 47 -22z"/>
<path d="M4645 2140 c3 -5 8 -10 11 -10 2 0 4 5 4 10 0 6 -5 10 -11 10 -5 0
-7 -4 -4 -10z"/>
<path d="M4772 2105 c-9 -11 -9 -15 -1 -15 9 0 9 -4 0 -14 -10 -11 -9 -14 1
-12 19 2 38 16 38 26 0 5 -7 7 -15 4 -11 -5 -13 -2 -9 10 8 20 3 20 -14 1z"/>
<path d="M4618 1683 c7 -3 16 -2 19 1 4 3 -2 6 -13 5 -11 0 -14 -3 -6 -6z"/>
<path d="M4113 2149 c-17 -5 -34 -17 -37 -27 -11 -34 -26 -164 -20 -173 3 -5
22 -9 43 -9 l38 0 7 -65 c7 -72 4 -85 -23 -85 -10 0 -25 -8 -33 -17 -18 -21
-38 -117 -28 -133 13 -21 118 -39 267 -46 109 -5 147 -3 153 6 11 18 3 149
-11 166 -6 8 -21 14 -34 14 -22 0 -22 3 -28 158 -3 86 -9 167 -13 179 -5 17
-18 23 -68 32 -74 13 -168 13 -213 0z m238 -60 c5 -8 9 -89 9 -181 0 -92 4
-169 9 -172 4 -3 23 -7 40 -8 31 -2 32 -3 30 -48 l-2 -45 -96 3 c-81 2 -231
18 -237 25 -1 1 1 20 5 42 5 33 11 41 31 43 14 2 31 9 38 14 6 6 12 6 12 1 0
-5 -6 -15 -12 -23 -11 -12 -10 -12 5 0 10 7 16 19 13 25 -2 7 1 18 7 25 9 10
9 11 -1 6 -9 -5 -12 1 -12 21 1 87 -10 188 -22 191 -8 2 -7 -1 2 -7 12 -8 5
-11 -28 -11 l-44 0 7 53 c4 28 13 55 19 60 20 14 217 2 227 -14z"/>
<path d="M4141 2061 c-8 -5 -9 -11 -3 -15 5 -3 12 1 16 9 6 17 6 18 -13 6z"/>
<path d="M4125 1730 c-3 -5 -1 -10 4 -10 6 0 11 5 11 10 0 6 -2 10 -4 10 -3 0
-8 -4 -11 -10z"/>
<path d="M1858 1440 c-98 -25 -163 -58 -210 -107 -44 -45 -58 -79 -58 -137 l0
-43 58 -7 c64 -7 172 -38 154 -44 -7 -2 -9 -8 -6 -14 4 -6 -4 -8 -22 -4 -42 8
-133 11 -140 3 -8 -8 46 -85 97 -136 169 -168 503 -275 761 -243 121 15 168
30 181 59 8 19 13 21 31 11 12 -6 25 -17 29 -25 19 -31 176 -92 291 -112 140
-25 372 -1 546 56 47 15 91 28 99 28 8 0 16 6 19 13 2 6 8 10 13 6 5 -3 16 1
24 8 34 31 43 36 49 31 3 -4 6 -2 6 3 0 5 14 18 31 28 18 11 28 23 25 32 -3 8
-1 14 4 14 16 0 11 67 -6 84 -14 14 -12 15 14 10 24 -5 34 0 60 30 18 20 33
44 33 54 6 62 -12 98 -71 149 -40 34 -146 94 -153 87 -3 -3 -22 2 -42 11 -128
53 -381 71 -516 36 -108 -28 -242 -84 -336 -141 -45 -28 -84 -50 -86 -50 -3 0
-3 9 0 21 4 13 -4 30 -23 51 -16 17 -22 27 -14 23 13 -8 13 -6 1 8 -7 9 -16
15 -20 13 -4 -3 -24 11 -46 30 -22 19 -45 34 -52 34 -7 0 -13 5 -13 12 0 6 -3
8 -6 5 -4 -3 -16 0 -28 8 -11 8 -31 15 -44 15 -15 0 -21 4 -16 12 5 7 3 8 -6
3 -7 -4 -15 -4 -19 1 -8 12 -117 48 -206 69 -112 27 -294 29 -387 5z m1005
-697 c31 -3 57 -10 57 -15 0 -12 -83 0 -130 19 -20 7 -24 11 -10 8 14 -3 51
-8 83 -12z"/>
</g>
</svg>
